<svg id="Layer_1" data-name="Layer 1" xmlns="http://www.w3.org/2000/svg" viewBox="0 0 1000 1000"><path d="M737,762.34c-17.05-7.33-34.05-14.78-51.08-22.17l-29.69-12.85V712.48H700.6v17.65h45.69a5.94,5.94,0,0,0,.32-1.26c0-11.64.34-23.3-.23-34.92s-7-17.15-18.78-17.17q-49.51-.1-99,.07a24,24,0,0,0-9.68,2.07c-7.11,3.29-9.22,9.79-9.3,16.91-.16,14.45,0,28.91,0,43.36,0,7,3.07,11.61,9.7,14.44C644,764.2,668.67,775,693.36,785.69c2.41,1,4.8,2.14,7.09,3.15v14.8H655.9V783.27H609.6c0,12.77,0,25.28,0,37.79a19.09,19.09,0,0,0,.56,4.32c1.52,6.51,5,11.31,11.91,13.08l.66-.19,1.14.12-1.14-.12-.66.19,1.87.44,1.11.06c1.27.09,2.54.25,3.81.25q49.1,0,98.2,0c1.26,0,2.53-.17,3.8-.26l1.15-.07,1.86-.41a15.11,15.11,0,0,0,11.35-10.76,28.7,28.7,0,0,0,1.33-8c.09-14.45,0-28.91-.05-43.36C746.51,769.61,743.28,765,737,762.34Z"/><path d="M594.29,771h0l-.18-.69-.28-.66h0L592,766.82h0c-2.76-3.8-7.08-5-11.21-6.44h0l-21.32-9.23h0l-1.83-.79L557,750l-2.83-1.22h0l-4.76-2.08-.6-.23-1.15-.5-.1,0-2.82-1.21,0,0-5.31-2.29h0l-1.13-.51-.85-.33-2.75-1.19-.65-.28-7.62-3.38a.51.51,0,0,0-.51-.18l-8.94-3.87a.59.59,0,0,0-.53-.2l-7-3-4.47-2.36V712.57h43.84V730.2h46.5c0-12.85.09-25.44-.09-38,0-2.09-1.26-4.16-1.93-6.24h0l-1.08-1.9a.38.38,0,0,0-.22-.4c-.25-.14-.49-.29-.73-.44-.49-.29-1-.59-1.46-.86.49.27,1,.57,1.46.86.24.15.48.3.73.44-2.12-1.78-4-4.17-6.41-5.18a25.83,25.83,0,0,0-9.46-1.71c-13.78-.17-27.56-.07-41.34-.07-18.8,0-37.59,0-56.39,0-4.12,0-8.27.1-11.79,2.74a.36.36,0,0,0-.39.23,28.78,28.78,0,0,0-4.13,3.53c-3.21,4-4,8.78-4,13.7,0,13.46-.07,26.92,0,40.39a27.24,27.24,0,0,0,1,8c.6,1.87,2.31,3.39,3.53,5.07l1.07.82,9,4.38h0l.57.22,15.21,6.59c-2.07-1.13-4.11-2.36-6.2-3.45,2.09,1.09,4.13,2.32,6.2,3.45l4.32,1.86,1.35.58,4.5,2,.84.36,4.51,2,.81.35L519.87,776a.39.39,0,0,0,.45.2l5.39,2.32h0l7.2,3.16.65.24,14.92,6.95V803.5h-43.9V783.1H458.12c-.08.77-.19,1.34-.19,1.91,0,11.62,0,23.25,0,34.88a21,21,0,0,0,.54,3.39c0-.24.07-.47.11-.7,0,.23-.08.46-.11.7l.12,1.2a13.94,13.94,0,0,0,4.94,10h0a12.36,12.36,0,0,0,9,4.37l1.19.11h0c1.37.09,2.73.25,4.1.25q48.94,0,97.9,0c1.27,0,2.54-.16,3.8-.25l3-.52,7.23-3.94h0l2.15-2.5,0,0c2.83-3.32,3.45-7.37,3.48-11.43.1-14.83.06-29.65,0-44.47A24.83,24.83,0,0,0,594.29,771Zm-4.1,61.54-.1.09Z"/><path d="M402.17,739.49c3.91.06,7.82.19,11.73.17,8.91,0,17.81-.11,26.72-.18l3.08.16c.05-1.24.13-2.18.13-3.12,0-7.56,0-15.13,0-22.69,0-4.64-.16-9.28-.24-13.92,0-1.56,0-3.12,0-4.68h0c-.19-1.54-.38-3.09-.58-4.64l-.23-1.18-.39-1.13c-1.55-6.09-5.69-9.55-11.7-10.95a26.05,26.05,0,0,0-5.86-.55q-49.92,0-99.84,0c-10.11,0-16,4.59-17.87,13.84a36.61,36.61,0,0,0-.59,6.94q-.06,60.35,0,120.7a36.19,36.19,0,0,0,.51,6.66c1.23,6.48,4.19,11.68,11.22,13.56l1.82.44,1.15.07c1.36.08,2.73.24,4.1.24q49.4,0,98.79,0c1.56,0,3.13-.18,4.69-.27l1.12-.07a.86.86,0,0,1-.06-.23.86.86,0,0,0,.06.23l1.87-.43,2.83-1.21,1.29-.68,1.24-.94h0l0,0h0l3.8-4.41v-.05c.68-1.84,1.35-3.67,2-5.5v0c.07-.33.14-.65.2-1,.09-.65.17-1.3.26-1.95l.13-2.3,0-1.75h0c.08-1.53.23-3.06.24-4.59,0-12.43,0-24.86,0-37.56l-2-.11-38.46,0h-4.47v25.46l-.19,0,0,.19-4.74.2c-3.91-.07-7.82-.23-11.73-.21-8.52,0-17,.14-25.55.21l-5.3-.31-.09-.09q0-38.13-.05-76.25c0-1.16-.11-2.32-.17-3.47v-4.12c0-.74,0-1.48,0-2.22l.3-1.39,5.91-.34c4,.08,8,.23,12,.22,7.83,0,15.65-.14,23.48-.22l6.29.47V739.7Z"/><path d="M408.71,182.91,418.26,228c0,18.33-9.92,36.79-23.17,49.62-32.58,31.62-71,61.79-88.62,117.12V191.31a29.63,29.63,0,0,1,29.85-29.39h53.45a6.73,6.73,0,0,1,5.42,2.71Z"/><path d="M746.7,191.28V409.51c-14-55.55-38.74-96.38-58.2-97.89-11.4-.9-17.61-13-28.22,36L595,189.4c-.28-5.23-.66-12.21-1.13-20a7.14,7.14,0,0,1,7.19-7.48H716.88A29.58,29.58,0,0,1,746.7,191.28Z"/><path d="M746.7,549.82v60.95a29.61,29.61,0,0,1-29.82,29.4H669C705.45,622.33,732.67,593.8,746.7,549.82Z"/><path d="M659.49,456.19s0,0,0,.07c-3.18,27-15.73,48.37-33.39,63.61l0,0C597.71,525,542.91,531,507.3,509c-1-.64-2-1.27-3-1.94q-1.95-1.32-3.76-2.7c-74-53.48-17.54-156.12,1.86-181v0c.51-.67,1-1.26,1.47-1.83,9.37-11,18.63-21.57,27.56-31.64.54-.63,1-1.16,1.36-1.55a4.48,4.48,0,0,0,.36-.42l.11-.11a3.25,3.25,0,0,1,.28-.35c20.59-23.34,39-44,51.63-61.18,31.35,69.63,68.17,172.41,68.17,172.41C659.81,420,661.49,439.23,659.49,456.19Z"/><path d="M412.42,640.17h-76.1a29.64,29.64,0,0,1-29.85-29.4V514.61C322.35,560.91,357.83,610.68,412.42,640.17Z"/><path d="M659.45,456.26c-3.18,27-15.73,48.37-33.39,63.61l0,0c-54.56,47-157.84,35.91-184.94-46.64-17.23-52.34,15.34-95.63,56.27-144,.47-.57,2.33-2.71,5-5.81v0c8.08-9.29,23.35-26.89,29-33.47.54-.63,1-1.16,1.36-1.55C452.57,382.53,453.7,473.12,512.4,505,582,542.74,650.13,503.13,659.45,456.26Z"/><path d="M254,809.08h8.15v9.59l-3.14.44v10.32H271V819.2l-3.27-.61v-9.41h8.16c1.22,10,.71,19.79.31,30.05H253.82A215.21,215.21,0,0,1,254,809.08Z"/><path d="M267.39,776.8v13.46l3.55.52v-18h5.45v27.66H253.66V773h5.22v17.35l3.28.15V777.06Z"/><path d="M270,755.25h6.34V765H253.44v-8.88c0-5.18,0-10.37,0-15.55,0-4.14.91-5,5-5,2.28,0,4.56,0,6.84,0,3.71,0,4.51.81,4.58,4.7s0,7.5,0,11.25Zm-5.41-.09v-9.44H259v9.44Z"/><path d="M253.61,720.41V709.65l22.82-11.59V708l-2.9,1.69v10.81l2.9,1.6V732Zm8.05-5.78.06.93L268,718v-6Z"/><path d="M253.65,667.54H259v9.9h17.38v10H259.11v10h-5.46Z"/><path d="M253.65,191.43v-9.22l10.71-11.4H253.69v-10H276.3v9.61c-3.27,3.48-6.69,7.12-10.49,11.18h10.55v9.87Z"/><path d="M254.42,230.49a32.07,32.07,0,0,1-.93-4.93q-.12-10.44,0-20.88c.05-3.88.9-4.7,4.64-4.73,5.64,0,11.27,0,17.37,0a26.61,26.61,0,0,1,1.05,4.92c.11,7,.08,13.92,0,20.88,0,3.84-.9,4.71-4.61,4.74C266.33,230.51,260.69,230.49,254.42,230.49ZM259,209.87v10.42h12.17V209.87Z"/><path d="M263.7,386.5c-10.91,1.17-10.31.12-10.26-8,0-5.19-.06-10.38.05-15.57a38.58,38.58,0,0,1,.82-5.3l6.58-.37v9.67l-2.33.91v8.69l.8.61c.64-.76,1.58-1.43,1.85-2.3,1.38-4.42,2.56-8.9,3.86-13.34.37-1.25.88-2.46,1.41-3.89h8.34c2.31,3,2.59,25.07.27,29h-6.16v-9.2l2.41-.8v-9l-.89-.5a11.35,11.35,0,0,0-1.7,2.63c-1.38,4.41-2.6,8.88-3.9,13.32C264.51,384.18,264.1,385.3,263.7,386.5Z"/><path d="M276.48,285.88v10l-3,1.66v10.82l2.93,1.6v9.95l-22.76-11.57V297.52Zm-14.84,16.6-.06.82,6.36,2.62v-6Z"/><path d="M253.74,320.7H259v10h17.49v9.93H259.12v10h-5.38Z"/><path d="M253.68,255.43H259v9.95h17.37v9.87H259v10h-5.34Z"/><path d="M253.71,238.91H276.4v9.54H253.71Z"/><path d="M276.18,644h-7.34v-9.17l2.53-.84V625l-.8-.55a9.77,9.77,0,0,0-1.78,2.47c-1.44,4.63-2.71,9.31-4.07,14-.3,1-.71,2-1.17,3.32-2.3,0-4.45,0-6.6,0a2.92,2.92,0,0,1-3.33-3.2c-.07-7.73-.17-15.47,0-23.19.07-3,1.77-3.52,7.15-2.82v9.34l-2.16.76V634l.86.52c.57-.74,1.42-1.39,1.68-2.22,1.44-4.64,2.71-9.32,4.08-14,.33-1.13.85-2.2,1.3-3.36h9.38C277.11,624.72,276.67,634.18,276.18,644Z"/><path d="M253.42,545.25l.2-1.36.16-.67,1.93-1.63,10.42,0,.79.29c.18.18.36.36.55.53l.71,1.49v3.8l1.89-1.8,5.28-5.18.57-.37.66.25q-.06,5.28-.1,10.55l-3.14,3.41-.67.61-2.62,2.63-.63.69-.69.59-4.64.47v-7.81h-5.23v9.21h12.5l1.32,0h2.6l.67.08.72.75v8.62l-1.37.83H255.71l-2.33-.88c0-3.49,0-7-.08-10.46v-1.5Z"/><path d="M262.22,415.23h5.21v13.38H271V410.94h5.36v27.58H253.72V411.26H259v17.36h3.19Z"/><path d="M267.81,447.32h7.25c2,3.39,2.17,26.41.15,30.09H255.12c-2.08-2.78-2.48-25.31-.34-30l7.28-.47v9.9l-3,.49v10.24h12.08V457.4l-3.31-.67Z"/><path d="M258.93,596.32h3.23V582.93h5.27v13.35l3.63.22V578.62h5.32v27.62H253.69V578.93h5.24Z"/><path d="M276.46,513.91v10.14l-22.68,11.56V525.37L267.57,519l-13.92-6.39V502.38Z"/><path d="M253.72,486.24H276.4v9.54H253.72Z"/></svg>