<svg id="Layer_1" data-name="Layer 1" xmlns="http://www.w3.org/2000/svg" viewBox="0 0 1000 1000"><path d="M821.08,592h9.6l11.86,11.31V592H853v23.89H843l-11.63-11.08V616H821.08Z"/><path d="M780.44,592.77a30.73,30.73,0,0,1,5.13-1q10.86-.13,21.73,0c4,0,4.89.94,4.92,4.9,0,6,0,11.91,0,18.35a27.71,27.71,0,0,1-5.12,1.12c-7.24.11-14.48.08-21.73,0-4,0-4.9-.95-4.93-4.87C780.41,605.35,780.44,599.39,780.44,592.77Zm21.46,4.8H791.05v12.86H801.9Z"/><path d="M618.11,602.58c-1.22-11.54-.13-10.9,8.36-10.84,5.4,0,10.8-.07,16.2,0a42.56,42.56,0,0,1,5.52.87c.14,2.56.25,4.67.38,7H638.51l-.94-2.46h-9.05l-.63.85c.79.67,1.48,1.67,2.39,2,4.6,1.45,9.26,2.7,13.88,4.07,1.3.39,2.55.94,4.05,1.49v8.82c-3.13,2.44-26.09,2.73-30.18.29V608.1h9.58c.23.73.53,1.65.82,2.55h9.35l.52-.95a11.63,11.63,0,0,0-2.73-1.78c-4.6-1.46-9.24-2.76-13.86-4.13C620.52,603.43,619.35,603,618.11,602.58Z"/><path d="M350.19,615.77V608h9.54l.87,2.68h9.29l.57-.86a10.26,10.26,0,0,0-2.57-1.88c-4.81-1.52-9.69-2.86-14.53-4.3-1.07-.31-2.11-.75-3.46-1.24,0-2.43,0-4.7,0-7s1.2-3.49,3.33-3.51c8-.08,16.09-.18,24.13,0,3.1.08,3.67,1.87,2.93,7.56h-9.71l-.8-2.28h-9.25l-.54.9c.77.61,1.44,1.51,2.32,1.79,4.82,1.51,9.69,2.85,14.53,4.3,1.17.36,2.29.9,3.49,1.37v9.93C370.23,616.75,360.38,616.29,350.19,615.77Z"/><path d="M452.92,591.71l1.41.21.7.17,1.69,2,0,11-.31.84-.55.57-1.55.76h-4l1.88,2c1.8,1.86,3.59,3.72,5.39,5.57l.38.61c-.09.23-.17.47-.26.7l-11-.11-3.54-3.31-.64-.71-2.73-2.77-.72-.67-.61-.73-.49-4.91h8.12v-5.52H436.6v13.21l0,1.39v2.75l-.08.71-.78.76h-9l-.86-1.44v-.71q0-8.26,0-16.55v-3.44l.91-2.47,10.88-.08h1.56Z"/><path d="M178.38,592.29v8.61h-10l-.46-3.31H157.21v12.74h10.65l.63-3.45h9.79v8.62c-10.36,1.29-20.59.75-31.26.32V592.14A220.33,220.33,0,0,1,178.38,592.29Z"/><path d="M588.21,601v5.51H574.29v3.76h18.39V616H564V592h28.37v5.61H574.27V601Z"/><path d="M554.82,606.92v7.66c-3.54,2.16-27.48,2.29-31.32.15V593.51c2.9-2.2,26.34-2.62,31.27-.37.14,2.27.3,4.83.49,7.7H545c-.15-.93-.3-1.9-.51-3.19H533.78v12.77h10.54l.7-3.5Z"/><path d="M212,606.47H198c-.18,1.24-.32,2.21-.54,3.76h18.75V616H187.41V592h28.5v5.52h-18L197.7,601h14Z"/><path d="M399.78,597.53V601h13.93v5.57H399.82c-.08,1.29-.14,2.34-.23,3.83H418.2V616H389.45V592h28.42v5.53Z"/><path d="M234.4,609.19v6.7H224.24V591.74h9.23c5.39,0,10.79,0,16.19,0,4.3,0,5.16,1,5.2,5.34,0,2.41,0,4.82-.05,7.23,0,3.92-.83,4.77-4.88,4.84s-7.81,0-11.71,0Zm.09-5.72h9.83v-5.89h-9.83Z"/><path d="M270.65,591.92h11.2L293.91,616H283.6c-.53-.92-1.09-1.89-1.76-3.07H270.59L268.92,616H258.63Zm6,8.5-1,.07-2.55,6.66h6.24C278.39,604.69,277.53,602.55,276.67,600.42Z"/><path d="M722.8,616.08H712.43l-1.72-3.17H699.44c-.56,1-1.1,2-1.66,3.1H687.42c4.13-8.24,8.05-16.09,12-24.06h11.23C714.64,599.81,718.57,607.66,722.8,616.08Zm-17.27-15.69-.85-.06L702,607.05h6.2Z"/><path d="M485.53,616.06H475l-12-24H473.6c2.06,4.54,4.13,9.1,6.62,14.57L486.87,592h10.65Z"/><path d="M325.66,592v5.62h-10.3V616H305V597.72H294.65V592Z"/><path d="M686.57,592.05v5.52H676.16v18.48H665.83V597.74H655.44v-5.69Z"/><path d="M754.48,592v5.62H744.13V616H733.87V597.62H723.42V592Z"/><path d="M771.68,592v24h-9.93V592Z"/><path d="M514.31,592v24h-9.92V592Z"/><path d="M841.93,484.39c-19.41-8.47-38.75-17.08-58.12-25.62q-16.87-7.44-33.78-14.84V426.78h50.5v20.4h52a7,7,0,0,0,.37-1.47c0-13.45.39-26.92-.27-40.34s-8-19.82-21.36-19.84q-56.32-.12-112.65.09a26.88,26.88,0,0,0-11,2.38c-8.09,3.81-10.49,11.32-10.58,19.54-.19,16.7,0,33.4,0,50.11,0,8,3.5,13.41,11,16.68,28.16,12.21,56.2,24.67,84.29,37,2.74,1.21,5.46,2.47,8.07,3.64v17.1H749.68V508.57H697c0,14.76,0,29.22,0,43.67a22.16,22.16,0,0,0,.64,5c1.72,7.52,5.7,13.07,13.55,15.12l.75-.23,1.3.14-1.3-.14-.75.23,2.12.49,1.27.08c1.44.1,2.89.29,4.33.29q55.86,0,111.72,0c1.44,0,2.88-.19,4.33-.29l1.3-.08,2.12-.47a17.33,17.33,0,0,0,12.91-12.44,33.51,33.51,0,0,0,1.51-9.24c.11-16.7,0-33.4-.05-50.1C852.76,492.78,849.09,487.51,841.93,484.39Z"/><path d="M679.59,494.43h0c-.07-.27-.13-.53-.2-.79l-.33-.77h0c-.7-1.1-1.39-2.21-2.08-3.31h0c-3.13-4.39-8.05-5.73-12.74-7.45h0L640,471.45h0l-2.08-.91-.74-.37-3.21-1.4h0l-5.42-2.39-.68-.28-1.31-.58-.12-.05-3.2-1.4,0,0-6-2.64h0l-1.29-.6-1-.37L611.65,459l-.74-.32-8.67-3.9a.59.59,0,0,0-.58-.21l-10.17-4.47a.69.69,0,0,0-.6-.24l-8-3.49-5.08-2.73V426.88H627.7v20.37h52.89c0-14.85.1-29.39-.1-43.92,0-2.42-1.43-4.81-2.2-7.22h0l-1.24-2.19a.42.42,0,0,0-.25-.46l-.83-.51c-.55-.34-1.1-.69-1.66-1,.56.31,1.11.66,1.66,1l.83.51c-2.4-2.06-4.51-4.82-7.28-6a29.06,29.06,0,0,0-10.77-2c-15.68-.2-31.35-.08-47-.09-21.38,0-42.77,0-64.16,0-4.68,0-9.41.11-13.41,3.16a.4.4,0,0,0-.44.27c-1.58,1.34-3.43,2.48-4.7,4.08-3.65,4.6-4.52,10.14-4.54,15.82,0,15.56-.08,31.11,0,46.67a31.84,31.84,0,0,0,1.19,9.25c.68,2.16,2.63,3.93,4,5.86l1.22,1,10.23,5.06h0l.64.26,17.31,7.61c-2.36-1.31-4.67-2.73-7.06-4,2.39,1.25,4.7,2.67,7.06,4l4.92,2.15,1.53.68,5.12,2.26,1,.41,5.14,2.28.92.4,17.26,7.62a.42.42,0,0,0,.5.22l6.14,2.68h0l8.2,3.65.74.28,17,8V532H577.52V508.38H524.67c-.09.89-.21,1.54-.21,2.2q0,20.15,0,40.3a25.35,25.35,0,0,0,.62,3.92c0-.27.08-.54.13-.81,0,.27-.1.54-.13.81l.14,1.39a16.12,16.12,0,0,0,5.62,11.55h0c2.62,3.26,6.15,4.7,10.21,5l1.35.13h0c1.56.1,3.11.29,4.67.29q55.68,0,111.37,0c1.45,0,2.89-.19,4.33-.3l3.38-.59,8.22-4.55h0l2.45-2.89,0-.06c3.22-3.83,3.93-8.51,4-13.21.12-17.13.06-34.26-.05-51.38C680.78,498.29,680,496.36,679.59,494.43Zm-4.66,71.11a.52.52,0,0,0-.11.1A.52.52,0,0,1,674.93,565.54Z"/><path d="M461,458c4.45.07,8.9.21,13.34.2,10.13,0,20.26-.14,30.4-.21l3.5.18c.06-1.43.15-2.52.15-3.6,0-8.74,0-17.48,0-26.22,0-5.36-.17-10.72-.26-16.08l0-5.41h0c-.22-1.79-.44-3.57-.65-5.36l-.27-1.36-.44-1.32c-1.76-7-6.48-11-13.31-12.64a29.19,29.19,0,0,0-6.67-.64q-56.79-.06-113.59,0c-11.5,0-18.25,5.31-20.32,16a43,43,0,0,0-.68,8q-.06,69.74,0,139.46a42,42,0,0,0,.59,7.69c1.39,7.49,4.76,13.49,12.75,15.67l2.08.51,1.3.08c1.56.09,3.12.28,4.67.28q56.19,0,112.39,0c1.78,0,3.56-.21,5.33-.31l1.28-.08a.9.9,0,0,1-.07-.27.9.9,0,0,0,.07.27l2.12-.5,3.23-1.39,1.47-.79,1.41-1.1h0l0,0h0l4.32-5.1v-.06l2.31-6.35v0c.07-.37.15-.75.22-1.12.1-.75.19-1.5.29-2.25l.15-2.65c0-.68,0-1.36,0-2h0c.1-1.77.27-3.53.27-5.3,0-14.36,0-28.72,0-43.39l-2.3-.14-43.75,0h-5.09V530l-.21,0,0,.21-5.39.24c-4.45-.09-8.9-.26-13.35-.25-9.69,0-19.38.16-29.07.25l-6-.36-.1-.1q0-44.06-.06-88.11c0-1.33-.13-2.67-.2-4v-7.31c.11-.54.22-1.08.34-1.61l6.72-.4c4.55.1,9.11.27,13.66.26,8.91,0,17.81-.16,26.71-.26l7.16.55v29.17Z"/><path d="M187.28,392.09l3.76,18c0,7.33-3.91,14.71-9.12,19.84-12.84,12.65-28,24.72-34.9,46.85V395.45a11.75,11.75,0,0,1,11.75-11.76h21a2.62,2.62,0,0,1,2.13,1.08Z"/><path d="M320.38,395.43v87.28c-5.5-22.21-15.25-38.54-22.92-39.15-4.49-.36-6.93-5.19-11.11,14.4l-25.71-63.28c-.11-2.09-.26-4.88-.44-8a2.83,2.83,0,0,1,2.83-3h45.61A11.73,11.73,0,0,1,320.38,395.43Z"/><path d="M320.38,538.83v24.38A11.75,11.75,0,0,1,308.64,575H289.8C304.14,567.83,314.86,556.42,320.38,538.83Z"/><path d="M286,501.39l0,0a39,39,0,0,1-13.15,25.44v0c-11.15,2-32.73,4.43-46.75-4.35-.41-.26-.81-.51-1.19-.78s-1-.71-1.48-1.08c-29.15-21.39-6.91-62.44.74-72.38h0c.19-.27.39-.51.57-.73,3.69-4.41,7.34-8.63,10.86-12.66.21-.25.39-.47.53-.62a1,1,0,0,0,.14-.17l.05,0,.11-.14c8.11-9.34,15.37-17.59,20.33-24.47,12.34,27.85,26.85,69,26.85,69A57.25,57.25,0,0,1,286,501.39Z"/><path d="M188.74,575h-30A11.76,11.76,0,0,1,147,563.21V524.75C153.27,543.27,167.24,563.17,188.74,575Z"/><path d="M286,501.41a39,39,0,0,1-13.15,25.44v0c-21.48,18.79-62.16,14.36-72.83-18.66-6.78-20.93,6-38.25,22.16-57.61.18-.22.92-1.08,2-2.32h0l11.43-13.39c.21-.25.39-.47.53-.62-31.59,37.66-31.14,73.9-8,86.64C255.51,536,282.35,520.16,286,501.41Z"/></svg>