<svg id="Layer_1" data-name="Layer 1" xmlns="http://www.w3.org/2000/svg" viewBox="0 0 1000 1000"><path d="M341.23,201.61l12.87,61.68c0,25.08-13.36,50.32-31.21,67.87C279,374.42,227.21,415.69,203.53,491.37V213.1a40.21,40.21,0,0,1,40.21-40.21h72A9,9,0,0,1,323,176.6Z"/><path d="M796.47,213.06V511.59c-18.81-76-52.18-131.85-78.39-133.92-15.35-1.22-23.71-17.76-38,49.26L592.14,210.48c-.38-7.14-.88-16.7-1.52-27.35a9.71,9.71,0,0,1,9.68-10.24h156A40.15,40.15,0,0,1,796.47,213.06Z"/><path d="M796.47,703.51V786.9a40.19,40.19,0,0,1-40.17,40.21H691.86C740.91,802.71,777.57,763.68,796.47,703.51Z"/><path d="M679,575.44s0,0,0,.1c-4.29,37-21.19,66.16-45,87l0,0c-38.14,7-112,15.17-159.91-14.87-1.4-.87-2.75-1.74-4-2.65-1.75-1.2-3.43-2.44-5.06-3.7-99.69-73.15-23.63-213.55,2.51-247.55v-.05c.67-.92,1.35-1.73,2-2.5C482,376.19,494.49,361.75,506.53,348c.72-.87,1.35-1.59,1.83-2.12a4.91,4.91,0,0,0,.48-.58l.14-.14a4.09,4.09,0,0,1,.39-.48C537.11,312.73,562,284.51,578.9,261c42.23,95.24,91.82,235.84,91.82,235.84C679.44,526,681.7,552.23,679,575.44Z"/><path d="M346.24,827.11H243.74a40.23,40.23,0,0,1-40.21-40.21V655.35C224.92,718.69,272.7,786.77,346.24,827.11Z"/><path d="M679,575.54c-4.29,37-21.19,66.16-45,87l0,0c-73.48,64.29-212.59,49.12-249.09-63.79-23.21-71.61,20.66-130.83,75.79-197,.63-.77,3.13-3.71,6.79-7.94v-.05c10.88-12.71,31.44-36.79,39.1-45.79.72-.87,1.35-1.59,1.83-2.12-108,128.81-106.53,252.74-27.46,296.33C574.59,693.83,666.41,639.65,679,575.54Z"/></svg>